<svg width="262" height="262" viewBox="0 0 262 262" fill="none" xmlns="http://www.w3.org/2000/svg">
<path fill-rule="evenodd" clip-rule="evenodd" d="M239.949 146C232.633 199.655 186.626 241 130.963 241C75.3 241 29.2933 199.655 21.9774 146H11.8916C19.2731 205.195 69.769 251 130.963 251C192.157 251 242.653 205.195 250.035 146H239.949ZM21.0034 128C22.5929 68.6356 71.2151 21 130.963 21C190.711 21 239.334 68.6356 240.923 128H250.926C249.334 63.1121 196.234 11 130.963 11C65.692 11 12.5922 63.1121 11 128H21.0034Z" fill="#CCCCCC"/>
<circle opacity="0.1" cx="131" cy="131" r="130" stroke="#AAAAAA" stroke-width="2"/>
</svg>
