<svg width="314" height="314" viewBox="0 0 314 314" fill="none" xmlns="http://www.w3.org/2000/svg">
<circle opacity="0.5" cx="156" cy="157" r="60" fill="white"/>
<circle cx="156.5" cy="157.5" r="115.5" stroke="white" stroke-width="10"/>
<path d="M309 157L289 157" stroke="white" stroke-width="10" stroke-linecap="round"/>
<path d="M25 157L5 157" stroke="white" stroke-width="10" stroke-linecap="round"/>
<path d="M157 309L157 289" stroke="white" stroke-width="10" stroke-linecap="round"/>
<path d="M157 25L157 5" stroke="#FF0000" stroke-width="10" stroke-linecap="round"/>
<circle cx="222.942" cy="271.511" r="5" transform="rotate(60 222.942 271.511)" fill="white"/>
<circle cx="90.4416" cy="42.0143" r="5" transform="rotate(60 90.4416 42.0143)" fill="white"/>
<circle cx="271.511" cy="90.0584" r="5" transform="rotate(-30 271.511 90.0584)" fill="white"/>
<circle cx="42.0145" cy="222.558" r="5" transform="rotate(-30 42.0145 222.558)" fill="white"/>
<circle cx="272.269" cy="223.667" r="5" transform="rotate(30 272.269 223.667)" fill="white"/>
<circle cx="42.7723" cy="91.1673" r="5" transform="rotate(30 42.7723 91.1673)" fill="white"/>
<circle cx="223.667" cy="42.731" r="5" transform="rotate(-60 223.667 42.731)" fill="white"/>
<circle cx="91.1673" cy="272.228" r="5" transform="rotate(-60 91.1673 272.228)" fill="white"/>
</svg>
